<?xml version="1.0" encoding="UTF-8"?> <svg xmlns="http://www.w3.org/2000/svg" width="52" height="52" viewBox="0 0 52 52" fill="none"> <path d="M36.4485 10.9899V7.09838C36.4485 6.76108 36.0609 6.57482 35.7991 6.78122L13.1046 24.5069C12.9118 24.6568 12.7558 24.8488 12.6485 25.0683C12.5411 25.2877 12.4854 25.5287 12.4854 25.773C12.4854 26.0173 12.5411 26.2583 12.6485 26.4777C12.7558 26.6971 12.9118 26.8892 13.1046 27.0391L35.7991 44.7648C36.0659 44.9712 36.4485 44.7849 36.4485 44.4476V40.5561C36.4485 40.3094 36.3328 40.0728 36.1414 39.9218L18.0181 25.7755L36.1414 11.6242C36.3328 11.4732 36.4485 11.2365 36.4485 10.9899V10.9899Z" fill="white"></path> </svg> 