<svg width="52" height="52" viewBox="0 0 52 52" fill="none" xmlns="http://www.w3.org/2000/svg">
<path d="M15.5515 10.9899V7.09838C15.5515 6.76108 15.9391 6.57482 16.2009 6.78122L38.8954 24.5069C39.0882 24.6568 39.2442 24.8488 39.3515 25.0683C39.4589 25.2877 39.5146 25.5287 39.5146 25.773C39.5146 26.0173 39.4589 26.2583 39.3515 26.4777C39.2442 26.6971 39.0882 26.8892 38.8954 27.0391L16.2009 44.7648C15.9341 44.9712 15.5515 44.7849 15.5515 44.4476V40.5561C15.5515 40.3094 15.6672 40.0728 15.8586 39.9218L33.9819 25.7755L15.8586 11.6242C15.6672 11.4732 15.5515 11.2365 15.5515 10.9899Z" fill="white"/>
</svg>
