<?xml version="1.0" encoding="UTF-8"?> <svg xmlns="http://www.w3.org/2000/svg" width="15" height="11" viewBox="0 0 15 11" fill="none"> <path fill-rule="evenodd" clip-rule="evenodd" d="M13.89 2.52075V4.97075C14.29 5.43075 14.54 6.03075 14.54 6.69075V10.5208H13.04V9.02075H2.04004V10.5208H0.540039V6.69075C0.540039 6.03075 0.790039 5.43075 1.19004 4.97075V2.52075C1.19004 1.42075 2.09004 0.520752 3.19004 0.520752H6.54004C6.91004 0.520752 7.26004 0.640752 7.54004 0.840752C7.82004 0.640752 8.17004 0.520752 8.54004 0.520752H11.89C12.99 0.520752 13.89 1.42075 13.89 2.52075ZM8.29004 4.02075H12.29V2.02075H8.29004V4.02075ZM6.79004 2.02075H2.79004V4.02075H6.79004V2.02075ZM2.04004 6.52075V7.52075H13.04V6.52075C13.04 5.97075 12.59 5.52075 12.04 5.52075H3.04004C2.49004 5.52075 2.04004 5.97075 2.04004 6.52075Z" fill="#6AA91B"></path> </svg> 