<svg width="68" height="68" viewBox="0 0 68 68" fill="none" xmlns="http://www.w3.org/2000/svg">
<path d="M56.741 9.65787C57.8813 8.58277 59.3991 7.98848 60.9738 8.00017C62.5484 8.01206 64.0569 8.62916 65.1808 9.72113C66.3047 10.8133 66.9562 12.295 66.9979 13.8536C67.0395 15.4124 66.468 16.9261 65.4038 18.0754L33.0997 58.0784C32.5442 58.6708 31.8737 59.1462 31.1285 59.4762C30.3831 59.8061 29.5782 59.984 28.7619 59.999C27.9457 60.0139 27.1348 59.8657 26.3776 59.5632C25.6206 59.2609 24.9328 58.8104 24.3555 58.2387L2.93263 37.0267C2.3361 36.4763 1.85749 35.8125 1.52563 35.075C1.19378 34.3375 1.01527 33.5413 1.00094 32.734C0.986611 31.9267 1.13647 31.1248 1.44199 30.3762C1.74732 29.6276 2.20193 28.9474 2.77851 28.3765C3.3551 27.8056 4.04204 27.3554 4.7981 27.0531C5.55417 26.7506 6.36406 26.6022 7.17937 26.6164C7.99468 26.6306 8.79876 26.8073 9.54359 27.1359C10.2884 27.4645 10.9589 27.9384 11.5148 28.5291L28.4684 45.308L56.587 9.83424C56.6376 9.77251 56.6918 9.71366 56.7489 9.65787H56.741Z" fill="#8ED834"/>
</svg>
