<svg width="579" height="333" viewBox="0 0 579 333" fill="none" xmlns="http://www.w3.org/2000/svg">
<path d="M321.522 127.222L181.634 11.3243L172.257 3.55164C170.122 1.79234 167.232 0.804932 164.22 0.804932C161.209 0.804932 158.319 1.79234 156.183 3.55164L6.9198 127.222C4.73073 129.029 3.00067 131.183 1.83157 133.553C0.662635 135.924 0.0785897 138.466 0.113808 141.026C0.258555 151.591 10.8659 160.023 23.6092 160.023H38.9954V257.764H289.445V160.023H305.158C311.347 160.023 317.176 158.012 321.557 154.381C323.714 152.599 325.422 150.48 326.585 148.146C327.748 145.812 328.339 143.312 328.328 140.786C328.328 135.685 325.901 130.853 321.522 127.222ZM184.493 236.158H143.947V174.938H184.493V236.158Z" fill="#6AA91B"/>
<path d="M22.2663 331.738C18.4856 331.738 15.0583 330.925 11.9843 329.3C8.94564 327.639 6.54297 325.36 4.77631 322.463C3.04497 319.53 2.1793 316.226 2.1793 312.552C2.1793 308.877 3.04497 305.591 4.77631 302.694C6.54297 299.761 8.94564 297.482 11.9843 295.857C15.0583 294.196 18.5033 293.366 22.3193 293.366C25.5346 293.366 28.432 293.931 31.0113 295.062C33.626 296.192 35.8166 297.818 37.5833 299.938L32.0713 305.026C29.5626 302.128 26.4533 300.68 22.7433 300.68C20.4466 300.68 18.3973 301.192 16.5953 302.217C14.7933 303.206 13.38 304.602 12.3553 306.404C11.366 308.206 10.8713 310.255 10.8713 312.552C10.8713 314.848 11.366 316.898 12.3553 318.7C13.38 320.502 14.7933 321.915 16.5953 322.94C18.3973 323.929 20.4466 324.424 22.7433 324.424C26.4533 324.424 29.5626 322.957 32.0713 320.025L37.5833 325.113C35.8166 327.268 33.626 328.911 31.0113 330.042C28.3966 331.172 25.4816 331.738 22.2663 331.738ZM43.1794 294.002H51.7124V318.17L69.4144 294.002H77.4704V331.102H68.9904V306.987L51.2884 331.102H43.1794V294.002ZM120.469 331.102L120.416 308.895L109.498 327.18H105.682L94.7637 309.319V331.102H86.7077V294.002H93.8097L107.696 317.057L121.37 294.002H128.472L128.525 331.102H120.469ZM171.555 294.002V331.102H163.022V300.998H146.274V331.102H137.741V294.002H171.555ZM196.811 294.002C200.097 294.002 202.941 294.549 205.344 295.645C207.782 296.74 209.654 298.295 210.962 300.309C212.269 302.323 212.923 304.708 212.923 307.464C212.923 310.184 212.269 312.569 210.962 314.619C209.654 316.633 207.782 318.187 205.344 319.283C202.941 320.343 200.097 320.873 196.811 320.873H189.338V331.102H180.752V294.002H196.811ZM196.334 313.877C198.913 313.877 200.874 313.329 202.217 312.234C203.559 311.103 204.231 309.513 204.231 307.464C204.231 305.379 203.559 303.789 202.217 302.694C200.874 301.563 198.913 300.998 196.334 300.998H189.338V313.877H196.334ZM236.806 331.738C232.955 331.738 229.474 330.907 226.365 329.247C223.291 327.586 220.871 325.307 219.104 322.41C217.373 319.477 216.507 316.191 216.507 312.552C216.507 308.912 217.373 305.644 219.104 302.747C220.871 299.814 223.291 297.517 226.365 295.857C229.474 294.196 232.955 293.366 236.806 293.366C240.657 293.366 244.12 294.196 247.194 295.857C250.268 297.517 252.688 299.814 254.455 302.747C256.222 305.644 257.105 308.912 257.105 312.552C257.105 316.191 256.222 319.477 254.455 322.41C252.688 325.307 250.268 327.586 247.194 329.247C244.12 330.907 240.657 331.738 236.806 331.738ZM236.806 324.424C238.997 324.424 240.975 323.929 242.742 322.94C244.509 321.915 245.887 320.502 246.876 318.7C247.901 316.898 248.413 314.848 248.413 312.552C248.413 310.255 247.901 308.206 246.876 306.404C245.887 304.602 244.509 303.206 242.742 302.217C240.975 301.192 238.997 300.68 236.806 300.68C234.615 300.68 232.637 301.192 230.87 302.217C229.103 303.206 227.708 304.602 226.683 306.404C225.694 308.206 225.199 310.255 225.199 312.552C225.199 314.848 225.694 316.898 226.683 318.7C227.708 320.502 229.103 321.915 230.87 322.94C232.637 323.929 234.615 324.424 236.806 324.424ZM295.756 294.002V331.102H287.276V300.998H274.556L274.291 308.736C274.115 314 273.691 318.276 273.019 321.562C272.348 324.812 271.217 327.321 269.627 329.088C268.073 330.819 265.882 331.685 263.055 331.685C261.889 331.685 260.476 331.49 258.815 331.102L259.345 323.841C259.805 323.982 260.317 324.053 260.882 324.053C262.932 324.053 264.363 322.851 265.175 320.449C265.988 318.011 266.5 314.212 266.712 309.054L267.242 294.002H295.756ZM305.022 294.002H313.555V318.17L331.257 294.002H339.313V331.102H330.833V306.987L313.131 331.102H305.022V294.002ZM376.905 300.998H365.033V331.102H356.553V300.998H344.734V294.002H376.905V300.998ZM399.322 331.738C395.541 331.738 392.114 330.925 389.04 329.3C386.001 327.639 383.599 325.36 381.832 322.463C380.101 319.53 379.235 316.226 379.235 312.552C379.235 308.877 380.101 305.591 381.832 302.694C383.599 299.761 386.001 297.482 389.04 295.857C392.114 294.196 395.559 293.366 399.375 293.366C402.59 293.366 405.488 293.931 408.067 295.062C410.682 296.192 412.872 297.818 414.639 299.938L409.127 305.026C406.618 302.128 403.509 300.68 399.799 300.68C397.502 300.68 395.453 301.192 393.651 302.217C391.849 303.206 390.436 304.602 389.411 306.404C388.422 308.206 387.927 310.255 387.927 312.552C387.927 314.848 388.422 316.898 389.411 318.7C390.436 320.502 391.849 321.915 393.651 322.94C395.453 323.929 397.502 324.424 399.799 324.424C403.509 324.424 406.618 322.957 409.127 320.025L414.639 325.113C412.872 327.268 410.682 328.911 408.067 330.042C405.452 331.172 402.537 331.738 399.322 331.738ZM448.228 300.998H436.356V331.102H427.876V300.998H416.057V294.002H448.228V300.998ZM469.678 294.002C472.964 294.002 475.808 294.549 478.211 295.645C480.649 296.74 482.521 298.295 483.829 300.309C485.136 302.323 485.79 304.708 485.79 307.464C485.79 310.184 485.136 312.569 483.829 314.619C482.521 316.633 480.649 318.187 478.211 319.283C475.808 320.343 472.964 320.873 469.678 320.873H462.205V331.102H453.619V294.002H469.678ZM469.201 313.877C471.78 313.877 473.741 313.329 475.084 312.234C476.426 311.103 477.098 309.513 477.098 307.464C477.098 305.379 476.426 303.789 475.084 302.694C473.741 301.563 471.78 300.998 469.201 300.998H462.205V313.877H469.201ZM509.673 331.738C505.822 331.738 502.342 330.907 499.232 329.247C496.158 327.586 493.738 325.307 491.971 322.41C490.24 319.477 489.374 316.191 489.374 312.552C489.374 308.912 490.24 305.644 491.971 302.747C493.738 299.814 496.158 297.517 499.232 295.857C502.342 294.196 505.822 293.366 509.673 293.366C513.525 293.366 516.987 294.196 520.061 295.857C523.135 297.517 525.556 299.814 527.322 302.747C529.089 305.644 529.972 308.912 529.972 312.552C529.972 316.191 529.089 319.477 527.322 322.41C525.556 325.307 523.135 327.586 520.061 329.247C516.987 330.907 513.525 331.738 509.673 331.738ZM509.673 324.424C511.864 324.424 513.843 323.929 515.609 322.94C517.376 321.915 518.754 320.502 519.743 318.7C520.768 316.898 521.28 314.848 521.28 312.552C521.28 310.255 520.768 308.206 519.743 306.404C518.754 304.602 517.376 303.206 515.609 302.217C513.843 301.192 511.864 300.68 509.673 300.68C507.483 300.68 505.504 301.192 503.737 302.217C501.971 303.206 500.575 304.602 499.55 306.404C498.561 308.206 498.066 310.255 498.066 312.552C498.066 314.848 498.561 316.898 499.55 318.7C500.575 320.502 501.971 321.915 503.737 322.94C505.504 323.929 507.483 324.424 509.673 324.424ZM536.587 294.002H545.12V318.17L562.822 294.002H570.878V331.102H562.398V306.987L544.696 331.102H536.587V294.002ZM553.706 291.617C546.922 291.617 543.494 288.914 543.424 283.508H549.307C549.377 286.087 550.844 287.377 553.706 287.377C555.119 287.377 556.197 287.059 556.939 286.423C557.681 285.751 558.069 284.78 558.105 283.508H563.988C563.952 286.158 563.087 288.172 561.391 289.55C559.695 290.928 557.133 291.617 553.706 291.617Z" fill="white"/>
</svg>
