<?xml version="1.0" encoding="UTF-8"?> <svg xmlns="http://www.w3.org/2000/svg" width="17" height="16" viewBox="0 0 17 16" fill="none"> <path d="M9.02986 9.02155C9.02986 8.41378 9.52256 7.92108 10.1303 7.92108L12.5555 7.92109L14.9806 7.92108C15.5884 7.92108 16.0811 8.41378 16.0811 9.02155V13.8719C16.0811 14.4796 15.5884 14.9723 14.9806 14.9723H10.1303C9.52256 14.9723 9.02986 14.4796 9.02986 13.8719V9.02155ZM9.02986 2.32839C9.02986 1.72061 9.52256 1.22791 10.1303 1.22791H14.9806C15.5884 1.22791 16.0811 1.72061 16.0811 2.32839V4.72844C16.0811 5.33622 15.5884 5.82892 14.9806 5.82892H12.5555H10.1303C9.52256 5.82892 9.02986 5.33622 9.02986 4.72844V2.32839ZM1.20032 2.32839C1.20032 1.72061 1.69302 1.22791 2.3008 1.22791H5.09201C5.69978 1.22791 6.19248 1.72061 6.19248 2.32838V13.8719C6.19248 14.4796 5.69978 14.9723 5.09201 14.9723H2.3008C1.69302 14.9723 1.20032 14.4796 1.20032 13.8719V2.32839Z" stroke="#6AA91B" stroke-width="1.32057"></path> </svg> 