<?xml version="1.0" encoding="UTF-8"?> <svg xmlns="http://www.w3.org/2000/svg" width="11" height="11" viewBox="0 0 11 11" fill="none"> <path d="M2.44083 1.51373C2.24176 1.51373 2.05085 1.59281 1.91008 1.73357C1.76932 1.87433 1.69024 2.06525 1.69024 2.26432V3.5153C1.69024 3.64801 1.63752 3.77529 1.54368 3.86913C1.44984 3.96297 1.32256 4.01569 1.18985 4.01569C1.05713 4.01569 0.929857 3.96297 0.836015 3.86913C0.742173 3.77529 0.689453 3.64801 0.689453 3.5153V2.26432C0.689453 1.79982 0.873973 1.35435 1.20242 1.02591C1.53087 0.697459 1.97634 0.512939 2.44083 0.512939H3.69181C3.82453 0.512939 3.9518 0.565659 4.04564 0.659501C4.13949 0.753343 4.19221 0.88062 4.19221 1.01333C4.19221 1.14605 4.13949 1.27332 4.04564 1.36716C3.9518 1.46101 3.82453 1.51373 3.69181 1.51373H2.44083ZM2.44083 9.52002C2.24176 9.52002 2.05085 9.44094 1.91008 9.30018C1.76932 9.15941 1.69024 8.9685 1.69024 8.76943V7.51845C1.69024 7.38573 1.63752 7.25846 1.54368 7.16461C1.44984 7.07077 1.32256 7.01805 1.18985 7.01805C1.05713 7.01805 0.929857 7.07077 0.836015 7.16461C0.742173 7.25846 0.689453 7.38573 0.689453 7.51845V8.76943C0.689453 9.23392 0.873973 9.67939 1.20242 10.0078C1.53087 10.3363 1.97634 10.5208 2.44083 10.5208H3.69181C3.82453 10.5208 3.9518 10.4681 4.04564 10.3742C4.13949 10.2804 4.19221 10.1531 4.19221 10.0204C4.19221 9.8877 4.13949 9.76042 4.04564 9.66658C3.9518 9.57274 3.82453 9.52002 3.69181 9.52002H2.44083ZM9.69653 2.26432C9.69653 2.06525 9.61745 1.87433 9.47669 1.73357C9.33593 1.59281 9.14501 1.51373 8.94594 1.51373H7.69496C7.56225 1.51373 7.43497 1.46101 7.34113 1.36716C7.24729 1.27332 7.19457 1.14605 7.19457 1.01333C7.19457 0.88062 7.24729 0.753343 7.34113 0.659501C7.43497 0.565659 7.56225 0.512939 7.69496 0.512939H8.94594C9.41044 0.512939 9.85591 0.697459 10.1844 1.02591C10.5128 1.35435 10.6973 1.79982 10.6973 2.26432V3.5153C10.6973 3.64801 10.6446 3.77529 10.5508 3.86913C10.4569 3.96297 10.3296 4.01569 10.1969 4.01569C10.0642 4.01569 9.93694 3.96297 9.84309 3.86913C9.74925 3.77529 9.69653 3.64801 9.69653 3.5153V2.26432ZM8.94594 9.52002C9.14501 9.52002 9.33593 9.44094 9.47669 9.30018C9.61745 9.15941 9.69653 8.9685 9.69653 8.76943V7.51845C9.69653 7.38573 9.74925 7.25846 9.84309 7.16461C9.93694 7.07077 10.0642 7.01805 10.1969 7.01805C10.3296 7.01805 10.4569 7.07077 10.5508 7.16461C10.6446 7.25846 10.6973 7.38573 10.6973 7.51845V8.76943C10.6973 9.23392 10.5128 9.67939 10.1844 10.0078C9.85591 10.3363 9.41044 10.5208 8.94594 10.5208H7.69496C7.56225 10.5208 7.43497 10.4681 7.34113 10.3742C7.24729 10.2804 7.19457 10.1531 7.19457 10.0204C7.19457 9.8877 7.24729 9.76042 7.34113 9.66658C7.43497 9.57274 7.56225 9.52002 7.69496 9.52002H8.94594ZM3.56671 2.51451C3.434 2.51451 3.30673 2.56723 3.21288 2.66107C3.11904 2.75492 3.06632 2.88219 3.06632 3.01491V3.7655C3.06632 3.89821 3.11904 4.02549 3.21288 4.11933C3.30673 4.21317 3.434 4.26589 3.56671 4.26589C3.69943 4.26589 3.8267 4.21317 3.92055 4.11933C4.01439 4.02549 4.06711 3.89821 4.06711 3.7655V3.5153H5.19299V7.51845H4.5675C4.43479 7.51845 4.30751 7.57116 4.21367 7.66501C4.11983 7.75885 4.06711 7.88613 4.06711 8.01884C4.06711 8.15155 4.11983 8.27883 4.21367 8.37267C4.30751 8.46651 4.43479 8.51923 4.5675 8.51923H6.81927C6.95198 8.51923 7.07926 8.46651 7.1731 8.37267C7.26694 8.27883 7.31966 8.15155 7.31966 8.01884C7.31966 7.88613 7.26694 7.75885 7.1731 7.66501C7.07926 7.57116 6.95198 7.51845 6.81927 7.51845H6.19378V3.5153H7.31966V3.7655C7.31966 3.89821 7.37238 4.02549 7.46623 4.11933C7.56007 4.21317 7.68734 4.26589 7.82006 4.26589C7.95277 4.26589 8.08005 4.21317 8.17389 4.11933C8.26773 4.02549 8.32045 3.89821 8.32045 3.7655V3.01491C8.32045 2.88219 8.26773 2.75492 8.17389 2.66107C8.08005 2.56723 7.95277 2.51451 7.82006 2.51451H3.56671Z" fill="#6AA91B"></path> </svg> 