<?xml version="1.0" encoding="UTF-8"?> <svg xmlns="http://www.w3.org/2000/svg" width="32" height="31" viewBox="0 0 32 31" fill="none"> <path d="M24.1566 6.34814C21.3048 3.58838 16.6609 3.58838 13.8121 6.34814L5.91077 13.9888C5.85931 14.0386 5.83206 14.106 5.83206 14.1763C5.83206 14.2466 5.85931 14.314 5.91077 14.3638L7.02786 15.4448C7.07892 15.494 7.14804 15.5216 7.2201 15.5216C7.29215 15.5216 7.36127 15.494 7.41233 15.4448L15.3137 7.8042C16.2946 6.85498 17.5993 6.3335 18.9859 6.3335C20.3724 6.3335 21.6772 6.85498 22.655 7.8042C23.6359 8.75342 24.1747 10.0161 24.1747 11.355C24.1747 12.6968 23.6359 13.9565 22.655 14.9058L14.6023 22.6958L13.2975 23.9585C12.0775 25.1392 10.0946 25.1392 8.87454 23.9585C8.28421 23.3872 7.96028 22.6284 7.96028 21.8198C7.96028 21.0112 8.28421 20.2524 8.87454 19.6812L16.8637 11.9526C17.0665 11.7593 17.3329 11.6509 17.6175 11.6509H17.6205C17.9051 11.6509 18.1685 11.7593 18.3683 11.9526C18.5711 12.1489 18.6801 12.4067 18.6801 12.6821C18.6801 12.9546 18.5681 13.2124 18.3683 13.4058L11.8383 19.7192C11.7868 19.769 11.7596 19.8364 11.7596 19.9067C11.7596 19.9771 11.7868 20.0444 11.8383 20.0942L12.9554 21.1753C13.0065 21.2245 13.0756 21.2521 13.1476 21.2521C13.2197 21.2521 13.2888 21.2245 13.3399 21.1753L19.8668 14.8589C20.4693 14.2759 20.7992 13.5024 20.7992 12.6792C20.7992 11.856 20.4662 11.0796 19.8668 10.4995C18.6226 9.29541 16.6003 9.29834 15.3561 10.4995L14.5811 11.2524L7.36995 18.228C6.88052 18.6989 6.49256 19.2591 6.22857 19.8762C5.96457 20.4932 5.8298 21.1549 5.83206 21.8228C5.83206 23.1792 6.38001 24.4536 7.36995 25.4116C8.39622 26.4019 9.74036 26.897 11.0845 26.897C12.4286 26.897 13.7728 26.4019 14.796 25.4116L24.1566 16.3589C25.534 15.0229 26.2969 13.2446 26.2969 11.355C26.2999 9.4624 25.537 7.68408 24.1566 6.34814Z" fill="#6AA91B"></path> </svg> 