<?xml version="1.0" encoding="UTF-8"?> <svg xmlns="http://www.w3.org/2000/svg" width="40" height="40" viewBox="0 0 40 40" fill="none"> <path d="M36.6319 19.5606L21.8225 4.75891L20.8299 3.76625C20.6037 3.54157 20.2978 3.41547 19.979 3.41547C19.6602 3.41547 19.3544 3.54157 19.1282 3.76625L3.32617 19.5606C3.09441 19.7914 2.91125 20.0664 2.78749 20.3692C2.66374 20.672 2.6019 20.9965 2.60563 21.3236C2.62096 22.6727 3.74392 23.7497 5.09302 23.7497H6.72189V36.2326H33.2362V23.7497H34.8995C35.5549 23.7497 36.172 23.4929 36.6357 23.0291C36.8641 22.8015 37.045 22.5309 37.168 22.2329C37.291 21.9348 37.3537 21.6154 37.3524 21.293C37.3524 20.6414 37.0956 20.0243 36.6319 19.5606ZM22.1253 33.4731H17.8327V25.6545H22.1253V33.4731ZM30.4767 20.9902V33.4731H24.5782V24.7347C24.5782 23.8877 23.8922 23.2016 23.0451 23.2016H16.9129C16.0659 23.2016 15.3798 23.8877 15.3798 24.7347V33.4731H9.4814V20.9902H5.80206L19.9829 6.82087L20.8682 7.70621L34.1598 20.9902H30.4767Z" fill="#6AA91B"></path> </svg> 