<?xml version="1.0" encoding="UTF-8"?> <svg xmlns="http://www.w3.org/2000/svg" width="39" height="39" viewBox="0 0 39 39" fill="none"> <circle cx="19.5341" cy="19.6165" r="19.2098" fill="#E7E7E7"></circle> <path d="M24.1209 14.6579C24.351 14.4389 24.6571 14.3178 24.9747 14.3202C25.2923 14.3226 25.5966 14.4483 25.8233 14.6708C26.05 14.8933 26.1814 15.1951 26.1898 15.5126C26.1982 15.8301 26.0829 16.1385 25.8683 16.3726L19.3525 24.5215C19.2404 24.6421 19.1052 24.739 18.9549 24.8062C18.8045 24.8734 18.6422 24.9096 18.4776 24.9127C18.3129 24.9157 18.1493 24.8856 17.9966 24.824C17.8439 24.7623 17.7052 24.6706 17.5888 24.5541L13.2677 20.2331C13.1474 20.121 13.0509 19.9858 12.984 19.8355C12.917 19.6853 12.881 19.5231 12.8781 19.3586C12.8752 19.1942 12.9055 19.0308 12.9671 18.8783C13.0287 18.7258 13.1204 18.5873 13.2367 18.471C13.353 18.3547 13.4915 18.263 13.644 18.2014C13.7965 18.1398 13.9599 18.1095 14.1243 18.1125C14.2888 18.1154 14.4509 18.1513 14.6012 18.2183C14.7514 18.2852 14.8866 18.3817 14.9988 18.5021L18.4184 21.92L24.0899 14.6938C24.1001 14.6813 24.111 14.6693 24.1226 14.6579H24.1209Z" fill="#CFCFCF"></path> </svg> 