<?xml version="1.0" encoding="UTF-8"?> <svg xmlns="http://www.w3.org/2000/svg" width="40" height="39" viewBox="0 0 40 39" fill="none"> <circle cx="20.0643" cy="19.6165" r="19.2098" fill="#8ED834"></circle> <path d="M24.6512 14.6579C24.8812 14.4389 25.1874 14.3178 25.505 14.3202C25.8226 14.3226 26.1269 14.4483 26.3536 14.6708C26.5803 14.8933 26.7117 15.1951 26.7201 15.5126C26.7285 15.8301 26.6132 16.1385 26.3986 16.3726L19.8827 24.5215C19.7707 24.6421 19.6355 24.739 19.4851 24.8062C19.3348 24.8734 19.1725 24.9096 19.0078 24.9127C18.8432 24.9157 18.6796 24.8856 18.5269 24.824C18.3742 24.7623 18.2355 24.6706 18.119 24.5541L13.798 20.2331C13.6777 20.121 13.5812 19.9858 13.5142 19.8355C13.4473 19.6853 13.4113 19.5231 13.4084 19.3586C13.4055 19.1942 13.4357 19.0308 13.4973 18.8783C13.5589 18.7258 13.6506 18.5873 13.7669 18.471C13.8832 18.3547 14.0218 18.263 14.1743 18.2014C14.3268 18.1398 14.4901 18.1095 14.6546 18.1125C14.819 18.1154 14.9812 18.1513 15.1315 18.2183C15.2817 18.2852 15.4169 18.3817 15.529 18.5021L18.9486 21.92L24.6202 14.6938C24.6304 14.6813 24.6413 14.6693 24.6528 14.6579H24.6512Z" fill="#FFFFFE"></path> </svg> 