<svg width="68" height="68" viewBox="0 0 68 68" fill="none" xmlns="http://www.w3.org/2000/svg">
<path d="M46.6344 21.2915C47.2234 20.7307 48.0073 20.4207 48.8206 20.4268C49.6339 20.433 50.413 20.7549 50.9935 21.3245C51.574 21.8942 51.9105 22.6671 51.932 23.4801C51.9535 24.2932 51.6583 25.0828 51.1087 25.6823L34.4239 46.5489C34.137 46.8579 33.7907 47.1059 33.4058 47.278C33.0208 47.4501 32.6051 47.5429 32.1835 47.5507C31.7619 47.5585 31.3431 47.4812 30.952 47.3234C30.561 47.1657 30.2058 46.9307 29.9076 46.6325L18.8429 35.5678C18.5348 35.2807 18.2876 34.9344 18.1162 34.5497C17.9448 34.165 17.8526 33.7497 17.8452 33.3286C17.8378 32.9075 17.9152 32.4892 18.073 32.0987C18.2307 31.7082 18.4655 31.3534 18.7633 31.0556C19.0611 30.7578 19.4159 30.523 19.8064 30.3653C20.1969 30.2075 20.6152 30.1301 21.0363 30.1375C21.4574 30.1449 21.8727 30.2371 22.2574 30.4085C22.6421 30.5799 22.9884 30.8271 23.2755 31.1352L32.0319 39.8875L46.5549 21.3835C46.581 21.3513 46.609 21.3206 46.6385 21.2915H46.6344Z" fill="white"/>
</svg>
