<svg width="179" height="52" viewBox="0 0 179 52" fill="none" xmlns="http://www.w3.org/2000/svg">
<rect x="0.294556" y="0.586304" width="178.378" height="50.7539" rx="25.3769" fill="#8ED834"/>
<path d="M79.8511 21.4863L77.5241 28.4413L75.2231 21.4863H73.6631L71.3101 28.4023L69.0481 21.4863H67.2931L70.3091 30.5863H72.1161L74.4041 23.8523L76.6531 30.5863H78.4471L81.4631 21.4863H79.8511ZM86.8133 23.5663C85.8513 23.5663 85.0323 23.8783 84.4993 24.4503V20.9403H82.8743V30.5863H84.4993V27.0763C84.4993 25.6853 85.2793 24.9833 86.4363 24.9833C87.4763 24.9833 88.0873 25.5813 88.0873 26.8163V30.5863H89.7123V26.6083C89.7123 24.5153 88.4773 23.5663 86.8133 23.5663ZM94.4258 23.5663C93.3078 23.5663 92.2288 23.8523 91.4878 24.4243L92.1248 25.6073C92.6448 25.1783 93.4508 24.9183 94.2308 24.9183C95.3878 24.9183 95.9598 25.4773 95.9598 26.4263V26.5303H94.1658C92.0598 26.5303 91.2798 27.4403 91.2798 28.5973C91.2798 29.8063 92.2808 30.6773 93.8668 30.6773C94.9068 30.6773 95.6608 30.3393 96.0508 29.7413V30.5863H97.5848V26.5173C97.5848 24.5153 96.4278 23.5663 94.4258 23.5663ZM94.2048 29.4943C93.3728 29.4943 92.8788 29.1173 92.8788 28.5323C92.8788 28.0253 93.1778 27.6093 94.2828 27.6093H95.9598V28.4153C95.6868 29.1303 94.9978 29.4943 94.2048 29.4943ZM103.388 29.0523C103.141 29.2473 102.816 29.3383 102.478 29.3383C101.854 29.3383 101.516 28.9743 101.516 28.2983V24.9963H103.375V23.6963H101.516V22.1103H99.8912V23.6963H98.7472V24.9963H99.8912V28.3373C99.8912 29.8713 100.762 30.6773 102.283 30.6773C102.868 30.6773 103.453 30.5213 103.843 30.2093L103.388 29.0523ZM107.325 30.6773C109.275 30.6773 110.471 29.8323 110.471 28.5323C110.471 25.8153 106.181 27.0633 106.181 25.6593C106.181 25.2043 106.649 24.8793 107.637 24.8793C108.3 24.8793 108.963 25.0093 109.626 25.3993L110.25 24.1643C109.626 23.7873 108.573 23.5663 107.65 23.5663C105.778 23.5663 104.595 24.4243 104.595 25.7373C104.595 28.5063 108.885 27.2583 108.885 28.5843C108.885 29.0653 108.456 29.3513 107.429 29.3513C106.558 29.3513 105.622 29.0653 105.011 28.6623L104.387 29.8973C105.011 30.3393 106.168 30.6773 107.325 30.6773ZM114.522 23.5663C113.404 23.5663 112.325 23.8523 111.584 24.4243L112.221 25.6073C112.741 25.1783 113.547 24.9183 114.327 24.9183C115.484 24.9183 116.056 25.4773 116.056 26.4263V26.5303H114.262C112.156 26.5303 111.376 27.4403 111.376 28.5973C111.376 29.8063 112.377 30.6773 113.963 30.6773C115.003 30.6773 115.757 30.3393 116.147 29.7413V30.5863H117.681V26.5173C117.681 24.5153 116.524 23.5663 114.522 23.5663ZM114.301 29.4943C113.469 29.4943 112.975 29.1173 112.975 28.5323C112.975 28.0253 113.274 27.6093 114.379 27.6093H116.056V28.4153C115.783 29.1303 115.094 29.4943 114.301 29.4943ZM123.615 23.5663C122.666 23.5663 121.86 23.8913 121.314 24.5543V23.6443H119.767V33.1083H121.392V29.7413C121.951 30.3783 122.731 30.6773 123.615 30.6773C125.643 30.6773 127.138 29.2733 127.138 27.1153C127.138 24.9703 125.643 23.5663 123.615 23.5663ZM123.433 29.2863C122.263 29.2863 121.366 28.4413 121.366 27.1153C121.366 25.7893 122.263 24.9443 123.433 24.9443C124.603 24.9443 125.487 25.7893 125.487 27.1153C125.487 28.4413 124.603 29.2863 123.433 29.2863ZM132.527 23.5663C131.578 23.5663 130.772 23.8913 130.226 24.5543V23.6443H128.679V33.1083H130.304V29.7413C130.863 30.3783 131.643 30.6773 132.527 30.6773C134.555 30.6773 136.05 29.2733 136.05 27.1153C136.05 24.9703 134.555 23.5663 132.527 23.5663ZM132.345 29.2863C131.175 29.2863 130.278 28.4413 130.278 27.1153C130.278 25.7893 131.175 24.9443 132.345 24.9443C133.515 24.9443 134.399 25.7893 134.399 27.1153C134.399 28.4413 133.515 29.2863 132.345 29.2863Z" fill="white"/>
<path fill-rule="evenodd" clip-rule="evenodd" d="M40.9329 35.6912C40.8483 35.9982 41.1279 36.2815 41.4359 36.201V36.201C44.4956 35.4018 47.7497 36.139 50.9114 36.2019C50.9796 36.2033 51.0479 36.2039 51.1162 36.2039H51.1213C56.7912 36.2039 61.4131 31.6088 61.4131 25.9604C61.4131 23.2227 60.3444 20.6477 58.4017 18.714C56.4589 16.7803 53.877 15.7117 51.1212 15.7117C45.4514 15.7117 40.8295 20.3068 40.8295 25.9553C40.8294 26.1468 40.8347 26.3379 40.8454 26.5285C41.0165 29.5871 41.7465 32.7379 40.9329 35.6912V35.6912ZM47.8594 21.0548C48.0485 21.0599 48.2581 21.0701 48.4576 21.5129C48.5898 21.8076 48.8126 22.3502 48.9941 22.7922C49.1354 23.1362 49.2516 23.4192 49.2807 23.4771C49.3471 23.6094 49.388 23.7621 49.3011 23.9401C49.2909 23.9612 49.2812 23.9812 49.2719 24.0006C49.2022 24.1453 49.1525 24.2482 49.0353 24.3829C48.9871 24.4382 48.9369 24.4989 48.8868 24.5594C48.7988 24.6657 48.7114 24.7714 48.6365 24.846C48.5036 24.9782 48.3655 25.1208 48.5188 25.3854C48.6723 25.65 49.2091 26.5202 50.0016 27.2224C50.8536 27.9809 51.5944 28.3005 51.9689 28.4621C52.0416 28.4935 52.1005 28.5189 52.1437 28.5404C52.4096 28.6727 52.5681 28.6523 52.7215 28.4743C52.8749 28.2961 53.3861 27.7007 53.5651 27.4361C53.7389 27.1716 53.9178 27.2123 54.1633 27.3038C54.4087 27.3954 55.7175 28.0366 55.9833 28.1689C56.0359 28.195 56.085 28.2186 56.1306 28.2405C56.3156 28.3292 56.4413 28.3895 56.4946 28.4793C56.5611 28.5913 56.5611 29.1205 56.3412 29.7413C56.1163 30.3622 55.0324 30.9575 54.5416 31.0033C54.4951 31.0077 54.4489 31.0133 54.4013 31.0191C53.9515 31.0735 53.3805 31.1426 51.3462 30.3418C48.8395 29.3561 47.1848 26.9103 46.8502 26.4159C46.8238 26.3768 46.8056 26.35 46.7959 26.3369L46.7902 26.3293C46.638 26.1257 45.7069 24.8797 45.7069 23.5942C45.7069 22.3643 46.3128 21.724 46.5891 21.4319C46.6066 21.4134 46.6228 21.3963 46.6374 21.3805C46.8828 21.1159 47.1692 21.0498 47.3481 21.0498C47.5271 21.0498 47.706 21.0498 47.8594 21.0548Z" fill="white"/>
</svg>
