<svg width="85" height="105" viewBox="0 0 85 105" fill="none" xmlns="http://www.w3.org/2000/svg">
<path d="M0 0H84.5073V91.9821C84.5073 95.096 82.1252 97.6924 79.0228 97.9599L6.51549 104.213C3.01138 104.515 0 101.752 0 98.2348V0Z" fill="white"/>
<path d="M58.9063 32.5989L44.0969 17.7972L43.1043 16.8045C42.8781 16.5798 42.5722 16.4537 42.2534 16.4537C41.9346 16.4537 41.6288 16.5798 41.4026 16.8045L25.6006 32.5989C25.3688 32.8297 25.1857 33.1047 25.0619 33.4075C24.9382 33.7103 24.8763 34.0348 24.88 34.3619C24.8954 35.711 26.0183 36.788 27.3674 36.788H28.9963V49.2709H55.5106V36.788H57.1739C57.8293 36.788 58.4464 36.5312 58.9101 36.0674C59.1385 35.8398 59.3194 35.5691 59.4424 35.2711C59.5655 34.9731 59.6281 34.6536 59.6268 34.3312C59.6268 33.6797 59.3701 33.0626 58.9063 32.5989ZM44.3997 46.5114H40.1072V38.6928H44.3997V46.5114ZM52.7511 34.0284V46.5114H46.8526V37.7729C46.8526 36.9259 46.1666 36.2399 45.3196 36.2399H39.1873C38.3403 36.2399 37.6543 36.9259 37.6543 37.7729V46.5114H31.7558V34.0284H28.0765L42.2573 19.8591L43.1426 20.7445L56.4342 34.0284H52.7511Z" fill="#6AA91B"/>
<path d="M52.7511 34.0284V46.5114H46.8526V37.7729C46.8526 36.9259 46.1666 36.2399 45.3196 36.2399H39.1873C38.3403 36.2399 37.6543 36.9259 37.6543 37.7729V46.5114H31.7558V34.0284H28.0765L42.2573 19.8591L43.1426 20.7445L56.4342 34.0284H52.7511Z" fill="white"/>
<path d="M15.5202 66.4059C15.065 66.4059 14.6411 66.3319 14.2485 66.184C13.8616 66.0304 13.523 65.817 13.2328 65.5439C12.9483 65.2651 12.7264 64.9379 12.5671 64.5624C12.4078 64.1868 12.3281 63.7772 12.3281 63.3333C12.3281 62.8895 12.4078 62.4798 12.5671 62.1043C12.7264 61.7288 12.9512 61.4044 13.2414 61.1313C13.5316 60.8525 13.8701 60.6391 14.257 60.4912C14.6439 60.3376 15.0678 60.2608 15.5287 60.2608C16.0181 60.2608 16.4647 60.3461 16.8687 60.5168C17.2727 60.6818 17.6141 60.9293 17.8929 61.2593L17.176 61.9336C16.9597 61.7003 16.7179 61.5268 16.4505 61.413C16.1831 61.2935 15.8929 61.2337 15.5799 61.2337C15.267 61.2337 14.9796 61.285 14.7179 61.3874C14.4619 61.4898 14.2371 61.6349 14.0436 61.8227C13.8559 62.0104 13.7079 62.2323 13.5998 62.4884C13.4974 62.7444 13.4462 63.0261 13.4462 63.3333C13.4462 63.6406 13.4974 63.9222 13.5998 64.1783C13.7079 64.4343 13.8559 64.6562 14.0436 64.844C14.2371 65.0318 14.4619 65.1769 14.7179 65.2793C14.9796 65.3817 15.267 65.4329 15.5799 65.4329C15.8929 65.4329 16.1831 65.376 16.4505 65.2622C16.7179 65.1427 16.9597 64.9635 17.176 64.7245L17.8929 65.4073C17.6141 65.7316 17.2727 65.9792 16.8687 66.1499C16.4647 66.3206 16.0152 66.4059 15.5202 66.4059ZM18.9316 66.3206V60.3461H20.0241V64.588L23.2332 60.3461H24.266V66.3206H23.1735V62.0872L19.9644 66.3206H18.9316ZM25.9496 66.3206V60.3461H26.8543L29.4745 64.7075H28.988L31.5656 60.3461H32.4703L32.4873 66.3206H31.429L31.4205 61.9934H31.6424L29.4574 65.6378H28.9624L26.7433 61.9934H26.9994V66.3206H25.9496ZM34.1678 66.3206V60.3461H39.4509V66.3206H38.3584V61.0118L38.6145 61.285H35.0042L35.2603 61.0118V66.3206H34.1678ZM41.1356 66.3206V60.3461H43.5936C44.1228 60.3461 44.5751 60.4315 44.9507 60.6022C45.3319 60.7729 45.6249 61.0175 45.8298 61.3362C46.0346 61.6548 46.137 62.0332 46.137 62.4713C46.137 62.9094 46.0346 63.2878 45.8298 63.6065C45.6249 63.9251 45.3319 64.1698 44.9507 64.3405C44.5751 64.5112 44.1228 64.5965 43.5936 64.5965H41.7501L42.2451 64.0759V66.3206H41.1356ZM42.2451 64.1954L41.7501 63.6577H43.5424C44.0317 63.6577 44.3987 63.5552 44.6434 63.3504C44.8938 63.1399 45.0189 62.8468 45.0189 62.4713C45.0189 62.0901 44.8938 61.797 44.6434 61.5922C44.3987 61.3874 44.0317 61.285 43.5424 61.285H41.7501L42.2451 60.7387V64.1954ZM50.0439 66.4059C49.5773 66.4059 49.1477 66.3291 48.7551 66.1755C48.3625 66.0218 48.0211 65.8085 47.7309 65.5353C47.4407 65.2565 47.216 64.9322 47.0567 64.5624C46.8973 64.1868 46.8177 63.7772 46.8177 63.3333C46.8177 62.8895 46.8973 62.4827 47.0567 62.1128C47.216 61.7373 47.4407 61.413 47.7309 61.1399C48.0211 60.8611 48.3625 60.6448 48.7551 60.4912C49.1477 60.3376 49.5745 60.2608 50.0353 60.2608C50.5019 60.2608 50.9287 60.3376 51.3156 60.4912C51.7082 60.6448 52.0496 60.8611 52.3398 61.1399C52.63 61.413 52.8547 61.7373 53.014 62.1128C53.1733 62.4827 53.253 62.8895 53.253 63.3333C53.253 63.7772 53.1733 64.1868 53.014 64.5624C52.8547 64.9379 52.63 65.2622 52.3398 65.5353C52.0496 65.8085 51.7082 66.0218 51.3156 66.1755C50.9287 66.3291 50.5048 66.4059 50.0439 66.4059ZM50.0353 65.4329C50.3369 65.4329 50.6157 65.3817 50.8718 65.2793C51.1278 65.1769 51.3497 65.0318 51.5375 64.844C51.7253 64.6506 51.8704 64.4286 51.9728 64.1783C52.0809 63.9222 52.1349 63.6406 52.1349 63.3333C52.1349 63.0261 52.0809 62.7473 51.9728 62.4969C51.8704 62.2409 51.7253 62.019 51.5375 61.8312C51.3497 61.6377 51.1278 61.4898 50.8718 61.3874C50.6157 61.285 50.3369 61.2337 50.0353 61.2337C49.7338 61.2337 49.455 61.285 49.1989 61.3874C48.9486 61.4898 48.7267 61.6377 48.5332 61.8312C48.3454 62.019 48.1975 62.2409 48.0894 62.4969C47.987 62.7473 47.9358 63.0261 47.9358 63.3333C47.9358 63.6349 47.987 63.9137 48.0894 64.1698C48.1975 64.4258 48.3454 64.6506 48.5332 64.844C48.721 65.0318 48.9429 65.1769 49.1989 65.2793C49.455 65.3817 49.7338 65.4329 50.0353 65.4329ZM54.202 66.4059C54.1053 66.4059 54.0086 66.3974 53.9119 66.3803C53.8151 66.3632 53.7099 66.3433 53.5961 66.3206L53.6729 65.3561C53.7525 65.3789 53.8379 65.3903 53.9289 65.3903C54.1679 65.3903 54.3585 65.2935 54.5008 65.1001C54.643 64.9009 54.7454 64.6107 54.808 64.2295C54.8706 63.8483 54.9133 63.3789 54.9361 62.8212L55.0214 60.3461H59.4169V66.3206H58.3244V61.0118L58.5805 61.285H55.7383L55.9773 61.0033L55.9176 62.7786C55.9005 63.3703 55.8607 63.8909 55.7981 64.3405C55.7355 64.79 55.6388 65.1683 55.5079 65.4756C55.3827 65.7772 55.2149 66.0076 55.0043 66.1669C54.7938 66.3262 54.5264 66.4059 54.202 66.4059ZM61.1061 66.3206V60.3461H62.1986V64.588L65.4077 60.3461H66.4405V66.3206H65.348V62.0872L62.1389 66.3206H61.1061ZM69.3702 66.3206V61.0118L69.6348 61.285H67.3986V60.3461H72.4513V61.285H70.2152L70.4712 61.0118V66.3206H69.3702ZM29.9687 76.4059C29.5135 76.4059 29.0896 76.3319 28.697 76.184C28.3101 76.0304 27.9715 75.817 27.6814 75.5439C27.3969 75.2651 27.1749 74.9379 27.0156 74.5624C26.8563 74.1868 26.7767 73.7772 26.7767 73.3333C26.7767 72.8895 26.8563 72.4798 27.0156 72.1043C27.1749 71.7288 27.3997 71.4044 27.6899 71.1313C27.9801 70.8525 28.3186 70.6391 28.7055 70.4912C29.0925 70.3376 29.5164 70.2608 29.9772 70.2608C30.4666 70.2608 30.9132 70.3461 31.3172 70.5168C31.7212 70.6818 32.0626 70.9293 32.3414 71.2593L31.6245 71.9336C31.4083 71.7003 31.1664 71.5268 30.899 71.413C30.6316 71.2935 30.3414 71.2337 30.0285 71.2337C29.7155 71.2337 29.4282 71.285 29.1664 71.3874C28.9104 71.4898 28.6856 71.6349 28.4922 71.8227C28.3044 72.0104 28.1565 72.2323 28.0484 72.4884C27.9459 72.7444 27.8947 73.0261 27.8947 73.3333C27.8947 73.6406 27.9459 73.9222 28.0484 74.1783C28.1565 74.4343 28.3044 74.6562 28.4922 74.844C28.6856 75.0318 28.9104 75.1769 29.1664 75.2793C29.4282 75.3817 29.7155 75.4329 30.0285 75.4329C30.3414 75.4329 30.6316 75.376 30.899 75.2622C31.1664 75.1427 31.4083 74.9635 31.6245 74.7245L32.3414 75.4073C32.0626 75.7316 31.7212 75.9792 31.3172 76.1499C30.9132 76.3206 30.4637 76.4059 29.9687 76.4059ZM34.5596 76.3206V71.0118L34.8241 71.285H32.588V70.3461H37.6407V71.285H35.4045L35.6606 71.0118V76.3206H34.5596ZM38.5976 76.3206V70.3461H41.0556C41.5848 70.3461 42.0372 70.4315 42.4127 70.6022C42.7939 70.7729 43.087 71.0175 43.2918 71.3362C43.4966 71.6548 43.599 72.0332 43.599 72.4713C43.599 72.9094 43.4966 73.2878 43.2918 73.6065C43.087 73.9251 42.7939 74.1698 42.4127 74.3405C42.0372 74.5112 41.5848 74.5965 41.0556 74.5965H39.2121L39.7071 74.0759V76.3206H38.5976ZM39.7071 74.1954L39.2121 73.6577H41.0044C41.4938 73.6577 41.8608 73.5552 42.1054 73.3504C42.3558 73.1399 42.481 72.8468 42.481 72.4713C42.481 72.0901 42.3558 71.797 42.1054 71.5922C41.8608 71.3874 41.4938 71.285 41.0044 71.285H39.2121L39.7071 70.7387V74.1954ZM47.5059 76.4059C47.0393 76.4059 46.6097 76.3291 46.2171 76.1755C45.8245 76.0218 45.4831 75.8085 45.1929 75.5353C44.9028 75.2565 44.678 74.9322 44.5187 74.5624C44.3594 74.1868 44.2797 73.7772 44.2797 73.3333C44.2797 72.8895 44.3594 72.4827 44.5187 72.1128C44.678 71.7373 44.9028 71.413 45.1929 71.1399C45.4831 70.8611 45.8245 70.6448 46.2171 70.4912C46.6097 70.3376 47.0365 70.2608 47.4974 70.2608C47.9639 70.2608 48.3907 70.3376 48.7776 70.4912C49.1702 70.6448 49.5116 70.8611 49.8018 71.1399C50.092 71.413 50.3167 71.7373 50.4761 72.1128C50.6354 72.4827 50.715 72.8895 50.715 73.3333C50.715 73.7772 50.6354 74.1868 50.4761 74.5624C50.3167 74.9379 50.092 75.2622 49.8018 75.5353C49.5116 75.8085 49.1702 76.0218 48.7776 76.1755C48.3907 76.3291 47.9668 76.4059 47.5059 76.4059ZM47.4974 75.4329C47.7989 75.4329 48.0777 75.3817 48.3338 75.2793C48.5898 75.1769 48.8117 75.0318 48.9995 74.844C49.1873 74.6506 49.3324 74.4286 49.4348 74.1783C49.5429 73.9222 49.597 73.6406 49.597 73.3333C49.597 73.0261 49.5429 72.7473 49.4348 72.4969C49.3324 72.2409 49.1873 72.019 48.9995 71.8312C48.8117 71.6377 48.5898 71.4898 48.3338 71.3874C48.0777 71.285 47.7989 71.2337 47.4974 71.2337C47.1958 71.2337 46.917 71.285 46.6609 71.3874C46.4106 71.4898 46.1887 71.6377 45.9952 71.8312C45.8075 72.019 45.6595 72.2409 45.5514 72.4969C45.449 72.7473 45.3978 73.0261 45.3978 73.3333C45.3978 73.6349 45.449 73.9137 45.5514 74.1698C45.6595 74.4258 45.8075 74.6506 45.9952 74.844C46.183 75.0318 46.4049 75.1769 46.6609 75.2793C46.917 75.3817 47.1958 75.4329 47.4974 75.4329ZM51.9503 76.3206V70.3461H53.0427V74.588L56.2519 70.3461H57.2846V76.3206H56.1921V72.0872L52.983 76.3206H51.9503ZM54.6046 69.945C54.0925 69.945 53.7056 69.8369 53.4439 69.6206C53.1878 69.4044 53.057 69.1 53.0513 68.7074H53.8279C53.8336 68.9179 53.9019 69.0801 54.0328 69.1939C54.1693 69.3077 54.36 69.3646 54.6046 69.3646C54.8493 69.3646 55.0399 69.3077 55.1765 69.1939C55.3187 69.0801 55.3927 68.9179 55.3984 68.7074H56.1665C56.1608 69.1 56.0271 69.4044 55.7654 69.6206C55.5036 69.8369 55.1167 69.945 54.6046 69.945Z" fill="black"/>
</svg>
