<svg width="97" height="123" viewBox="0 0 97 123" fill="none" xmlns="http://www.w3.org/2000/svg">
<path d="M0.986204 6.82822C0.986204 3.51451 3.6725 0.828217 6.9862 0.828217H90.9915C94.3052 0.828217 96.9915 3.51451 96.9915 6.82822V108.248C96.9915 111.359 94.6151 113.953 91.517 114.225L7.5117 121.611C4.00412 121.92 0.986204 119.155 0.986204 115.634V6.82822Z" fill="white"/>
<path d="M65.5534 50.0094L50.744 35.2077L49.7514 34.2151C49.5252 33.9904 49.2193 33.8643 48.9005 33.8643C48.5817 33.8643 48.2759 33.9904 48.0497 34.2151L32.2477 50.0094C32.0159 50.2403 31.8328 50.5152 31.709 50.818C31.5852 51.1208 31.5234 51.4453 31.5271 51.7724C31.5425 53.1215 32.6654 54.1985 34.0145 54.1985H35.6434V66.6814H62.1577V54.1985H63.821C64.4764 54.1985 65.0935 53.9417 65.5572 53.478C65.7856 53.2503 65.9665 52.9797 66.0895 52.6817C66.2125 52.3836 66.2752 52.0642 66.2739 51.7418C66.2739 51.0902 66.0171 50.4732 65.5534 50.0094ZM51.0468 63.9219H46.7542V56.1033H51.0468V63.9219ZM59.3982 51.439V63.9219H53.4997V55.1835C53.4997 54.3365 52.8137 53.6504 51.9667 53.6504H45.8344C44.9874 53.6504 44.3014 54.3365 44.3014 55.1835V63.9219H38.4029V51.439H34.7236L48.9044 37.2697L49.7897 38.155L63.0813 51.439H59.3982Z" fill="#6AA91B"/>
<path d="M59.3982 51.439V63.9219H53.4997V55.1835C53.4997 54.3365 52.8137 53.6504 51.9667 53.6504H45.8344C44.9874 53.6504 44.3014 54.3365 44.3014 55.1835V63.9219H38.4029V51.439H34.7236L48.9044 37.2697L49.7897 38.155L63.0813 51.439H59.3982Z" fill="#6AA91B"/>
<path d="M22.167 83.8164C21.7118 83.8164 21.2879 83.7424 20.8953 83.5945C20.5084 83.4409 20.1699 83.2275 19.8797 82.9544C19.5952 82.6756 19.3733 82.3484 19.214 81.9729C19.0546 81.5973 18.975 81.1876 18.975 80.7438C18.975 80.3 19.0546 79.8903 19.214 79.5148C19.3733 79.1393 19.598 78.8149 19.8882 78.5418C20.1784 78.263 20.517 78.0496 20.9039 77.9017C21.2908 77.7481 21.7147 77.6713 22.1756 77.6713C22.6649 77.6713 23.1116 77.7566 23.5156 77.9273C23.9195 78.0923 24.2609 78.3398 24.5397 78.6698L23.8228 79.3441C23.6066 79.1108 23.3648 78.9373 23.0973 78.8235C22.8299 78.704 22.5397 78.6442 22.2268 78.6442C21.9138 78.6442 21.6265 78.6954 21.3648 78.7979C21.1087 78.9003 20.884 79.0454 20.6905 79.2331C20.5027 79.4209 20.3548 79.6428 20.2467 79.8989C20.1443 80.1549 20.0931 80.4366 20.0931 80.7438C20.0931 81.0511 20.1443 81.3327 20.2467 81.5888C20.3548 81.8448 20.5027 82.0667 20.6905 82.2545C20.884 82.4423 21.1087 82.5874 21.3648 82.6898C21.6265 82.7922 21.9138 82.8434 22.2268 82.8434C22.5397 82.8434 22.8299 82.7865 23.0973 82.6727C23.3648 82.5532 23.6066 82.374 23.8228 82.135L24.5397 82.8178C24.2609 83.1421 23.9195 83.3897 23.5156 83.5604C23.1116 83.731 22.6621 83.8164 22.167 83.8164ZM25.5785 83.731V77.7566H26.6709V81.9985L29.8801 77.7566H30.9128V83.731H29.8203V79.4977L26.6112 83.731H25.5785ZM32.5964 83.731V77.7566H33.5011L36.1214 82.1179H35.6349L38.2124 77.7566H39.1171L39.1342 83.731H38.0759L38.0673 79.4038H38.2892L36.1043 83.0483H35.6093L33.3902 79.4038H33.6462V83.731H32.5964ZM40.8146 83.731V77.7566H46.0978V83.731H45.0053V78.4223L45.2613 78.6954H41.6511L41.9071 78.4223V83.731H40.8146ZM47.7824 83.731V77.7566H50.2405C50.7696 77.7566 51.222 77.842 51.5975 78.0127C51.9787 78.1833 52.2718 78.428 52.4766 78.7467C52.6814 79.0653 52.7839 79.4437 52.7839 79.8818C52.7839 80.3199 52.6814 80.6983 52.4766 81.0169C52.2718 81.3356 51.9787 81.5802 51.5975 81.7509C51.222 81.9216 50.7696 82.007 50.2405 82.007H48.3969L48.8919 81.4864V83.731H47.7824ZM48.8919 81.6059L48.3969 81.0682H50.1893C50.6786 81.0682 51.0456 80.9657 51.2903 80.7609C51.5406 80.5504 51.6658 80.2573 51.6658 79.8818C51.6658 79.5006 51.5406 79.2075 51.2903 79.0027C51.0456 78.7979 50.6786 78.6954 50.1893 78.6954H48.3969L48.8919 78.1492V81.6059ZM56.6907 83.8164C56.2241 83.8164 55.7946 83.7396 55.402 83.586C55.0093 83.4323 54.6679 83.219 54.3778 82.9458C54.0876 82.667 53.8628 82.3427 53.7035 81.9729C53.5442 81.5973 53.4645 81.1876 53.4645 80.7438C53.4645 80.3 53.5442 79.8932 53.7035 79.5233C53.8628 79.1478 54.0876 78.8235 54.3778 78.5504C54.6679 78.2715 55.0093 78.0553 55.402 77.9017C55.7946 77.7481 56.2213 77.6713 56.6822 77.6713C57.1488 77.6713 57.5755 77.7481 57.9624 77.9017C58.355 78.0553 58.6964 78.2715 58.9866 78.5504C59.2768 78.8235 59.5016 79.1478 59.6609 79.5233C59.8202 79.8932 59.8999 80.3 59.8999 80.7438C59.8999 81.1876 59.8202 81.5973 59.6609 81.9729C59.5016 82.3484 59.2768 82.6727 58.9866 82.9458C58.6964 83.219 58.355 83.4323 57.9624 83.586C57.5755 83.7396 57.1516 83.8164 56.6907 83.8164ZM56.6822 82.8434C56.9838 82.8434 57.2626 82.7922 57.5186 82.6898C57.7747 82.5874 57.9966 82.4423 58.1843 82.2545C58.3721 82.061 58.5172 81.8391 58.6196 81.5888C58.7277 81.3327 58.7818 81.0511 58.7818 80.7438C58.7818 80.4366 58.7277 80.1578 58.6196 79.9074C58.5172 79.6514 58.3721 79.4294 58.1843 79.2417C57.9966 79.0482 57.7747 78.9003 57.5186 78.7979C57.2626 78.6954 56.9838 78.6442 56.6822 78.6442C56.3806 78.6442 56.1018 78.6954 55.8458 78.7979C55.5954 78.9003 55.3735 79.0482 55.18 79.2417C54.9923 79.4294 54.8443 79.6514 54.7362 79.9074C54.6338 80.1578 54.5826 80.4366 54.5826 80.7438C54.5826 81.0454 54.6338 81.3242 54.7362 81.5802C54.8443 81.8363 54.9923 82.061 55.18 82.2545C55.3678 82.4423 55.5897 82.5874 55.8458 82.6898C56.1018 82.7922 56.3806 82.8434 56.6822 82.8434ZM60.8489 83.8164C60.7522 83.8164 60.6554 83.8079 60.5587 83.7908C60.462 83.7737 60.3567 83.7538 60.2429 83.731L60.3197 82.7666C60.3994 82.7894 60.4847 82.8007 60.5758 82.8007C60.8148 82.8007 61.0054 82.704 61.1476 82.5106C61.2899 82.3114 61.3923 82.0212 61.4549 81.64C61.5175 81.2588 61.5601 80.7893 61.5829 80.2317L61.6683 77.7566H66.0637V83.731H64.9713V78.4223L65.2273 78.6954H62.3852L62.6242 78.4138L62.5644 80.1891C62.5473 80.7808 62.5075 81.3014 62.4449 81.7509C62.3823 82.2005 62.2856 82.5788 62.1547 82.8861C62.0296 83.1877 61.8617 83.4181 61.6512 83.5774C61.4407 83.7367 61.1732 83.8164 60.8489 83.8164ZM67.753 83.731V77.7566H68.8455V81.9985L72.0546 77.7566H73.0873V83.731H71.9948V79.4977L68.7857 83.731H67.753ZM76.0171 83.731V78.4223L76.2816 78.6954H74.0455V77.7566H79.0982V78.6954H76.862L77.1181 78.4223V83.731H76.0171ZM36.6156 93.8164C36.1604 93.8164 35.7365 93.7424 35.3439 93.5945C34.9569 93.4409 34.6184 93.2275 34.3282 92.9544C34.0437 92.6756 33.8218 92.3484 33.6625 91.9729C33.5032 91.5973 33.4235 91.1876 33.4235 90.7438C33.4235 90.3 33.5032 89.8903 33.6625 89.5148C33.8218 89.1393 34.0465 88.8149 34.3367 88.5418C34.6269 88.263 34.9655 88.0496 35.3524 87.9017C35.7393 87.7481 36.1632 87.6713 36.6241 87.6713C37.1134 87.6713 37.5601 87.7566 37.9641 87.9273C38.3681 88.0923 38.7095 88.3398 38.9883 88.6698L38.2713 89.3441C38.0551 89.1108 37.8133 88.9373 37.5459 88.8235C37.2784 88.704 36.9883 88.6442 36.6753 88.6442C36.3624 88.6442 36.075 88.6954 35.8133 88.7979C35.5572 88.9003 35.3325 89.0454 35.139 89.2331C34.9512 89.4209 34.8033 89.6428 34.6952 89.8989C34.5928 90.1549 34.5416 90.4366 34.5416 90.7438C34.5416 91.0511 34.5928 91.3327 34.6952 91.5888C34.8033 91.8448 34.9512 92.0667 35.139 92.2545C35.3325 92.4423 35.5572 92.5874 35.8133 92.6898C36.075 92.7922 36.3624 92.8434 36.6753 92.8434C36.9883 92.8434 37.2784 92.7865 37.5459 92.6727C37.8133 92.5532 38.0551 92.374 38.2713 92.135L38.9883 92.8178C38.7095 93.1421 38.3681 93.3897 37.9641 93.5604C37.5601 93.731 37.1106 93.8164 36.6156 93.8164ZM41.2064 93.731V88.4223L41.471 88.6954H39.2348V87.7566H44.2875V88.6954H42.0514L42.3074 88.4223V93.731H41.2064ZM45.2444 93.731V87.7566H47.7025C48.2317 87.7566 48.684 87.842 49.0595 88.0127C49.4408 88.1833 49.7338 88.428 49.9386 88.7467C50.1435 89.0653 50.2459 89.4437 50.2459 89.8818C50.2459 90.3199 50.1435 90.6983 49.9386 91.0169C49.7338 91.3356 49.4408 91.5802 49.0595 91.7509C48.684 91.9216 48.2317 92.007 47.7025 92.007H45.8589L46.354 91.4864V93.731H45.2444ZM46.354 91.6059L45.8589 91.0682H47.6513C48.1406 91.0682 48.5076 90.9657 48.7523 90.7609C49.0026 90.5504 49.1278 90.2573 49.1278 89.8818C49.1278 89.5006 49.0026 89.2075 48.7523 89.0027C48.5076 88.7979 48.1406 88.6954 47.6513 88.6954H45.8589L46.354 88.1492V91.6059ZM54.1528 93.8164C53.6862 93.8164 53.2566 93.7396 52.864 93.586C52.4714 93.4323 52.13 93.219 51.8398 92.9458C51.5496 92.667 51.3249 92.3427 51.1655 91.9729C51.0062 91.5973 50.9266 91.1876 50.9266 90.7438C50.9266 90.3 51.0062 89.8932 51.1655 89.5233C51.3249 89.1478 51.5496 88.8235 51.8398 88.5504C52.13 88.2715 52.4714 88.0553 52.864 87.9017C53.2566 87.7481 53.6833 87.6713 54.1442 87.6713C54.6108 87.6713 55.0375 87.7481 55.4245 87.9017C55.8171 88.0553 56.1585 88.2715 56.4486 88.5504C56.7388 88.8235 56.9636 89.1478 57.1229 89.5233C57.2822 89.8932 57.3619 90.3 57.3619 90.7438C57.3619 91.1876 57.2822 91.5973 57.1229 91.9729C56.9636 92.3484 56.7388 92.6727 56.4486 92.9458C56.1585 93.219 55.8171 93.4323 55.4245 93.586C55.0375 93.7396 54.6136 93.8164 54.1528 93.8164ZM54.1442 92.8434C54.4458 92.8434 54.7246 92.7922 54.9806 92.6898C55.2367 92.5874 55.4586 92.4423 55.6464 92.2545C55.8341 92.061 55.9792 91.8391 56.0816 91.5888C56.1898 91.3327 56.2438 91.0511 56.2438 90.7438C56.2438 90.4366 56.1898 90.1578 56.0816 89.9074C55.9792 89.6514 55.8341 89.4294 55.6464 89.2417C55.4586 89.0482 55.2367 88.9003 54.9806 88.7979C54.7246 88.6954 54.4458 88.6442 54.1442 88.6442C53.8427 88.6442 53.5638 88.6954 53.3078 88.7979C53.0574 88.9003 52.8355 89.0482 52.6421 89.2417C52.4543 89.4294 52.3064 89.6514 52.1983 89.9074C52.0958 90.1578 52.0446 90.4366 52.0446 90.7438C52.0446 91.0454 52.0958 91.3242 52.1983 91.5802C52.3064 91.8363 52.4543 92.061 52.6421 92.2545C52.8298 92.4423 53.0517 92.5874 53.3078 92.6898C53.5638 92.7922 53.8427 92.8434 54.1442 92.8434ZM58.5971 93.731V87.7566H59.6896V91.9985L62.8987 87.7566H63.9314V93.731H62.839V89.4977L59.6298 93.731H58.5971ZM61.2515 87.3555C60.7394 87.3555 60.3525 87.2474 60.0907 87.0311C59.8347 86.8149 59.7038 86.5105 59.6981 86.1179H60.4748C60.4805 86.3284 60.5488 86.4906 60.6796 86.6044C60.8162 86.7182 61.0068 86.7751 61.2515 86.7751C61.4961 86.7751 61.6868 86.7182 61.8233 86.6044C61.9656 86.4906 62.0395 86.3284 62.0452 86.1179H62.8134C62.8077 86.5105 62.674 86.8149 62.4122 87.0311C62.1505 87.2474 61.7636 87.3555 61.2515 87.3555Z" fill="black"/>
</svg>
