<svg width="39" height="39" viewBox="0 0 39 39" fill="none" xmlns="http://www.w3.org/2000/svg">
<circle cx="19.4696" cy="19.6547" r="19.2098" fill="#E7E7E7"/>
<path d="M24.0565 14.6961C24.2865 14.4771 24.5926 14.356 24.9103 14.3584C25.2279 14.3608 25.5321 14.4865 25.7588 14.709C25.9855 14.9315 26.1169 15.2333 26.1253 15.5508C26.1337 15.8683 26.0185 16.1767 25.8038 16.4108L19.288 24.5597C19.176 24.6803 19.0407 24.7772 18.8904 24.8444C18.7401 24.9116 18.5777 24.9479 18.4131 24.9509C18.2485 24.954 18.0849 24.9238 17.9322 24.8622C17.7795 24.8005 17.6407 24.7088 17.5243 24.5923L13.2033 20.2713C13.083 20.1592 12.9864 20.024 12.9195 19.8737C12.8526 19.7235 12.8166 19.5613 12.8137 19.3969C12.8108 19.2324 12.841 19.0691 12.9026 18.9165C12.9642 18.764 13.0559 18.6255 13.1722 18.5092C13.2885 18.3929 13.427 18.3012 13.5796 18.2396C13.7321 18.178 13.8954 18.1478 14.0599 18.1507C14.2243 18.1536 14.3865 18.1896 14.5367 18.2565C14.687 18.3234 14.8222 18.42 14.9343 18.5403L18.3539 21.9582L24.0254 14.732C24.0357 14.7195 24.0466 14.7075 24.0581 14.6961H24.0565Z" fill="#CFCFCF"/>
</svg>
