<svg width="17" height="14" viewBox="0 0 17 14" fill="none" xmlns="http://www.w3.org/2000/svg">
<path d="M13.8869 1.35013C14.1686 1.08191 14.5435 0.933623 14.9325 0.936566C15.3215 0.93951 15.6941 1.09345 15.9717 1.3659C16.2494 1.63836 16.4103 2.00802 16.4206 2.39688C16.4309 2.78574 16.2897 3.16338 16.0269 3.45013L8.04685 13.4301C7.90963 13.5779 7.74402 13.6965 7.55991 13.7789C7.37581 13.8612 7.17699 13.9055 6.97535 13.9093C6.77371 13.913 6.57339 13.876 6.38636 13.8006C6.19934 13.7251 6.02945 13.6127 5.88685 13.4701L0.594848 8.17813C0.447475 8.0408 0.329271 7.8752 0.247287 7.69121C0.165303 7.50721 0.121219 7.30858 0.117665 7.10717C0.114112 6.90577 0.151161 6.70571 0.226603 6.51893C0.302045 6.33216 0.414335 6.16249 0.556772 6.02005C0.69921 5.87761 0.868877 5.76533 1.05565 5.68988C1.24243 5.61444 1.44249 5.57739 1.64389 5.58095C1.8453 5.5845 2.04393 5.62858 2.22793 5.71057C2.41192 5.79255 2.57752 5.91076 2.71485 6.05813L6.90285 10.2441L13.8489 1.39413C13.8614 1.37873 13.8747 1.36404 13.8889 1.35013H13.8869Z" fill="#8ED834"/>
</svg>
