<svg width="179" height="52" viewBox="0 0 179 52" fill="none" xmlns="http://www.w3.org/2000/svg">
<rect x="0.45752" y="0.586304" width="178.378" height="50.7539" rx="25.3769" fill="#FF833D"/>
<path d="M63.382 21.4863V30.5863H65.046V22.9163H69.765V30.5863H71.429V21.4863H63.382ZM76.907 30.6773C79.065 30.6773 80.612 29.1953 80.612 27.1153C80.612 25.0353 79.065 23.5663 76.907 23.5663C74.775 23.5663 73.215 25.0353 73.215 27.1153C73.215 29.1953 74.775 30.6773 76.907 30.6773ZM76.907 29.2863C75.737 29.2863 74.853 28.4413 74.853 27.1153C74.853 25.7893 75.737 24.9443 76.907 24.9443C78.09 24.9443 78.974 25.7893 78.974 27.1153C78.974 28.4413 78.09 29.2863 76.907 29.2863ZM86.2627 26.9723C86.9777 26.6863 87.4327 26.1273 87.4327 25.4513C87.4327 24.3073 86.1327 23.5403 84.3517 23.5403C83.4417 23.5403 82.5447 23.7353 81.5957 24.1773L82.0117 25.3733C82.7787 25.0353 83.5067 24.8663 84.2087 24.8663C85.1837 24.8663 85.7687 25.1783 85.7687 25.6853C85.7687 26.1923 85.2877 26.4783 84.4687 26.4783H83.2467V27.5703H84.5987C85.4697 27.5703 85.9637 27.8693 85.9637 28.4153C85.9637 29.0133 85.3007 29.3643 84.2217 29.3643C83.3637 29.3643 82.4797 29.1433 81.8037 28.7663L81.3357 29.9753C82.1677 30.4433 83.2337 30.7033 84.2997 30.7033C86.2367 30.7033 87.6277 29.8323 87.6277 28.5453C87.6277 27.7783 87.1207 27.2193 86.2627 26.9723ZM94.3323 26.9723C94.9953 26.6863 95.3983 26.1533 95.3983 25.4383C95.3983 24.2943 94.3843 23.6443 92.6943 23.6443H89.3013V30.5863H92.8373C94.7093 30.5863 95.6193 29.8583 95.6193 28.6363C95.6193 27.7913 95.1903 27.2323 94.3323 26.9723ZM90.8483 24.8273H92.5513C93.3833 24.8273 93.8123 25.1003 93.8123 25.6723C93.8123 26.2443 93.3833 26.5433 92.5513 26.5433H90.8483V24.8273ZM92.7073 29.4033H90.8483V27.6223H92.7593C93.6433 27.6223 94.0463 27.9213 94.0463 28.5323C94.0463 29.1303 93.5783 29.4033 92.7073 29.4033ZM100.444 30.6773C102.602 30.6773 104.149 29.1953 104.149 27.1153C104.149 25.0353 102.602 23.5663 100.444 23.5663C98.3121 23.5663 96.7521 25.0353 96.7521 27.1153C96.7521 29.1953 98.3121 30.6773 100.444 30.6773ZM100.444 29.2863C99.2741 29.2863 98.3901 28.4413 98.3901 27.1153C98.3901 25.7893 99.2741 24.9443 100.444 24.9443C101.627 24.9443 102.511 25.7893 102.511 27.1153C102.511 28.4413 101.627 29.2863 100.444 29.2863ZM105.754 30.5863H107.379V27.8433H110.876V30.5863H112.501V23.6443H110.876V26.4653H107.379V23.6443H105.754V30.5863ZM114.679 30.5863H116.174L119.996 26.0103V30.5863H121.621V23.6443H120.139L116.304 28.2203V23.6443H114.679V30.5863ZM129.306 23.6443H122.806V25.0223H125.25V30.5863H126.875V25.0223H129.306V23.6443ZM133.969 25.9323L132.11 25.9193V23.6443H130.485V30.5863L133.735 30.5993C135.633 30.6123 136.712 29.7413 136.712 28.2203C136.712 26.7773 135.75 25.9323 133.969 25.9323ZM133.592 29.4033L132.11 29.3903V27.0373L133.592 27.0503C134.554 27.0633 135.061 27.4013 135.061 28.1943C135.061 29.0003 134.541 29.4163 133.592 29.4033Z" fill="white"/>
<path d="M43.2141 19.1312L43.3557 18.9896C44.4561 17.8891 46.2402 17.8891 47.3406 18.9896L48.1752 19.8241C48.8147 20.4636 48.8147 21.5005 48.1752 22.1399C47.6768 22.6383 47.5533 23.3998 47.8685 24.0302L48.703 25.6993C49.112 26.5173 49.7753 27.1806 50.5933 27.5896L52.2624 28.4241C52.8929 28.7394 53.6543 28.6158 54.1527 28.1174C54.7922 27.4779 55.829 27.4779 56.4685 28.1174L57.3031 28.952C58.4035 30.0524 58.4035 31.8365 57.3031 32.9369L57.1615 33.0785C56.0994 34.1406 54.4181 34.2601 53.2165 33.3589L48.4678 29.7973C47.7201 29.2366 47.056 28.5725 46.4953 27.8249L42.9337 23.0761C42.0326 21.8745 42.152 20.1932 43.2141 19.1312Z" fill="white"/>
</svg>
