<svg width="51" height="51" viewBox="0 0 51 51" fill="none" xmlns="http://www.w3.org/2000/svg">
<circle cx="25.3068" cy="25.3205" r="25.197" fill="#8ED834"/>
<path d="M15.3066 19.3206C15.3066 18.2597 15.7281 17.2423 16.4782 16.4921C17.2284 15.742 18.2458 15.3206 19.3066 15.3206H31.3066C32.3675 15.3206 33.3849 15.742 34.1351 16.4921C34.8852 17.2423 35.3066 18.2597 35.3066 19.3206V24.3206H15.3066V19.3206Z" stroke="white" stroke-width="2" stroke-linecap="round" stroke-linejoin="round"/>
<path d="M31.8066 29.8206H28.8066" stroke="white" stroke-width="2" stroke-linecap="round"/>
<path d="M25.3066 24.3206H35.3066V31.3206C35.3066 32.3814 34.8852 33.3988 34.1351 34.149C33.3849 34.8991 32.3675 35.3206 31.3066 35.3206H25.3066V24.3206ZM25.3066 24.3206H15.3066V31.3206C15.3066 32.3814 15.7281 33.3988 16.4782 34.149C17.2284 34.8991 18.2458 35.3206 19.3066 35.3206H25.3066V24.3206Z" stroke="white" stroke-width="2" stroke-linecap="round" stroke-linejoin="round"/>
<path d="M21.948 31.3352L18.415 27.8022M18.415 31.3352L21.948 27.8022" stroke="white" stroke-width="2" stroke-linecap="round"/>
</svg>
