<svg width="68" height="68" viewBox="0 0 68 68" fill="none" xmlns="http://www.w3.org/2000/svg">
<path d="M46.5704 21.3299C47.1594 20.7691 47.9433 20.459 48.7566 20.4652C49.5699 20.4713 50.349 20.7932 50.9296 21.3629C51.5101 21.9325 51.8466 22.7054 51.8681 23.5185C51.8896 24.3315 51.5944 25.1211 51.0448 25.7206L34.3599 46.5872C34.073 46.8962 33.7267 47.1442 33.3418 47.3163C32.9569 47.4885 32.5412 47.5812 32.1196 47.589C31.698 47.5968 31.2791 47.5195 30.8881 47.3618C30.497 47.204 30.1418 46.969 29.8437 46.6708L18.779 35.6061C18.4708 35.319 18.2237 34.9727 18.0523 34.588C17.8809 34.2033 17.7887 33.788 17.7812 33.3669C17.7738 32.9458 17.8513 32.5275 18.009 32.137C18.1668 31.7465 18.4015 31.3917 18.6994 31.0939C18.9972 30.7961 19.3519 30.5613 19.7424 30.4036C20.133 30.2459 20.5512 30.1684 20.9723 30.1758C21.3935 30.1833 21.8088 30.2754 22.1935 30.4468C22.5782 30.6183 22.9244 30.8654 23.2115 31.1735L31.968 39.9258L46.4909 21.4219C46.5171 21.3897 46.545 21.359 46.5746 21.3299H46.5704Z" fill="#8ED834"/>
</svg>
