<svg width="85" height="105" viewBox="0 0 85 105" fill="none" xmlns="http://www.w3.org/2000/svg">
<path d="M0 0H84.5073V91.9821C84.5073 95.096 82.1252 97.6924 79.0228 97.9599L6.51549 104.213C3.01138 104.515 0 101.752 0 98.2348V0Z" fill="white"/>
<path d="M58.9063 32.5989L44.0969 17.7972L43.1043 16.8045C42.8781 16.5798 42.5722 16.4537 42.2534 16.4537C41.9346 16.4537 41.6288 16.5798 41.4026 16.8045L25.6006 32.5989C25.3688 32.8297 25.1857 33.1047 25.0619 33.4075C24.9382 33.7103 24.8763 34.0348 24.88 34.3619C24.8954 35.711 26.0183 36.788 27.3674 36.788H28.9963V49.2709H55.5106V36.788H57.1739C57.8293 36.788 58.4464 36.5312 58.9101 36.0674C59.1385 35.8398 59.3194 35.5691 59.4424 35.2711C59.5655 34.9731 59.6281 34.6536 59.6268 34.3312C59.6268 33.6797 59.3701 33.0626 58.9063 32.5989ZM44.3997 46.5114H40.1072V38.6928H44.3997V46.5114ZM52.7511 34.0284V46.5114H46.8526V37.7729C46.8526 36.9259 46.1666 36.2399 45.3196 36.2399H39.1873C38.3403 36.2399 37.6543 36.9259 37.6543 37.7729V46.5114H31.7558V34.0284H28.0765L42.2573 19.8591L43.1426 20.7445L56.4342 34.0284H52.7511Z" fill="#6AA91B"/>
<path d="M52.7511 34.0284V46.5114H46.8526V37.7729C46.8526 36.9259 46.1666 36.2399 45.3196 36.2399H39.1873C38.3403 36.2399 37.6543 36.9259 37.6543 37.7729V46.5114H31.7558V34.0284H28.0765L42.2573 19.8591L43.1426 20.7445L56.4342 34.0284H52.7511Z" fill="#6AA91B"/>
</svg>
