<svg width="51" height="51" viewBox="0 0 51 51" fill="none" xmlns="http://www.w3.org/2000/svg">
<rect y="0.127563" width="50.39" height="50.39" rx="25.195" fill="#8ED834"/>
<path d="M24.2699 36.8383C17.459 26.9646 16.1948 25.9512 16.1948 22.3225C16.1948 17.3519 20.2242 13.3225 25.1948 13.3225C30.1654 13.3225 34.1948 17.3519 34.1948 22.3225C34.1948 25.9512 32.9306 26.9646 26.1198 36.8383C25.6728 37.4839 24.7168 37.4839 24.2699 36.8383ZM25.1948 26.0725C27.2659 26.0725 28.9448 24.3936 28.9448 22.3225C28.9448 20.2514 27.2659 18.5725 25.1948 18.5725C23.1237 18.5725 21.4448 20.2514 21.4448 22.3225C21.4448 24.3936 23.1237 26.0725 25.1948 26.0725Z" fill="white"/>
</svg>
