<svg width="31" height="31" viewBox="0 0 31 31" fill="none" xmlns="http://www.w3.org/2000/svg">
<g clip-path="url(#clip0_139_452)">
<path d="M15.2282 0.487183C6.81892 0.487183 0.00195312 7.30415 0.00195312 15.7134C0.00195312 24.1227 6.81892 30.9397 15.2282 30.9397C23.6375 30.9397 30.4545 24.1227 30.4545 15.7134C30.4545 7.30415 23.6375 0.487183 15.2282 0.487183Z" fill="#40B3E0"/>
<path d="M22.6371 9.24585L19.9174 22.9577C19.9174 22.9577 19.5371 23.9086 18.4912 23.4522L12.2153 18.6407L9.93329 17.5377L6.09175 16.2445C6.09175 16.2445 5.50221 16.0353 5.44511 15.5789C5.38801 15.1225 6.11078 14.8753 6.11078 14.8753L21.3818 8.8847C21.3818 8.8847 22.637 8.33323 22.637 9.24609" fill="white"/>
<path d="M11.7329 22.8036C11.7329 22.8036 11.5497 22.7864 11.3213 22.0637C11.0933 21.341 9.93311 17.5375 9.93311 17.5375L19.1567 11.6802C19.1567 11.6802 19.6892 11.3569 19.6702 11.6802C19.6702 11.6802 19.7652 11.7373 19.4799 12.0035C19.1947 12.2699 12.2343 18.5265 12.2343 18.5265" fill="#D2E5F1"/>
<path d="M14.6215 20.4853L12.1393 22.7485C12.1393 22.7485 11.9451 22.8958 11.7329 22.8035L12.2083 18.5996" fill="#B5CFE4"/>
</g>
<defs>
<clipPath id="clip0_139_452">
<rect width="30.4525" height="30.4525" fill="white" transform="translate(0.00195312 0.487183)"/>
</clipPath>
</defs>
</svg>
