<svg width="30" height="31" viewBox="0 0 30 31" fill="none" xmlns="http://www.w3.org/2000/svg">
<path d="M14.7504 0.487183C6.6039 0.487183 0 7.30411 0 15.7134C0 24.1228 6.6039 30.9397 14.7504 30.9397C22.897 30.9397 29.5009 24.1228 29.5009 15.7134C29.5009 7.30411 22.897 0.487183 14.7504 0.487183ZM20.4232 17.6659C20.4232 17.6659 21.7277 18.995 22.0488 19.612C22.0581 19.6247 22.0627 19.6374 22.0657 19.6437C22.1963 19.8705 22.2271 20.0466 22.1625 20.1782C22.055 20.3971 21.6862 20.505 21.5602 20.5145H19.2555C19.0957 20.5145 18.7607 20.4717 18.3551 20.183C18.0432 19.9578 17.7359 19.5882 17.4363 19.2282C16.9891 18.6921 16.6019 18.229 16.2117 18.229C16.1621 18.2289 16.1128 18.2369 16.0657 18.2527C15.7707 18.3511 15.3927 18.7857 15.3927 19.9435C15.3927 20.3051 15.1161 20.5129 14.921 20.5129H13.8654C13.5059 20.5129 11.6329 20.3828 9.97345 18.5763C7.94219 16.3637 6.11375 11.9259 6.09839 11.8847C5.98315 11.5976 6.22131 11.4437 6.48098 11.4437H8.80878C9.11915 11.4437 9.22056 11.6388 9.29124 11.8117C9.37421 12.0131 9.67844 12.8141 10.1778 13.715C10.9875 15.1837 11.4838 15.7801 11.8818 15.7801C11.9564 15.7792 12.0297 15.7596 12.0954 15.723C12.6147 15.4248 12.5179 13.5136 12.4949 13.1171C12.4949 13.0425 12.4933 12.2622 12.2275 11.8878C12.037 11.6166 11.7128 11.5135 11.5161 11.4755C11.5957 11.3621 11.7006 11.2701 11.8219 11.2074C12.1783 11.0234 12.8206 10.9965 13.4582 10.9965H13.8132C14.5046 11.006 14.6828 11.052 14.9333 11.117C15.4403 11.2423 15.4511 11.5801 15.4065 12.7364C15.3927 13.0647 15.3789 13.4359 15.3789 13.8736C15.3789 13.9688 15.3743 14.0703 15.3743 14.1781C15.3589 14.7666 15.3405 15.4343 15.743 15.7087C15.7955 15.7427 15.8562 15.7608 15.9182 15.761C16.058 15.761 16.479 15.761 17.6191 13.742C17.9707 13.0921 18.2762 12.4168 18.5333 11.7213C18.5564 11.6801 18.624 11.5532 18.7039 11.504C18.7628 11.473 18.8282 11.4572 18.8944 11.458H21.6309C21.929 11.458 22.1333 11.504 22.1718 11.623C22.2394 11.8117 22.1595 12.3875 20.9103 14.1337L20.3525 14.8934C19.2201 16.4256 19.2201 16.5033 20.4232 17.6659Z" fill="#3278FF"/>
<path d="M14.7504 0.487183C6.6039 0.487183 0 7.30411 0 15.7134C0 24.1228 6.6039 30.9397 14.7504 30.9397C22.897 30.9397 29.5009 24.1228 29.5009 15.7134C29.5009 7.30411 22.897 0.487183 14.7504 0.487183ZM20.4232 17.6659C20.4232 17.6659 21.7277 18.995 22.0488 19.612C22.0581 19.6247 22.0627 19.6374 22.0657 19.6437C22.1963 19.8705 22.2271 20.0466 22.1625 20.1782C22.055 20.3971 21.6862 20.505 21.5602 20.5145H19.2555C19.0957 20.5145 18.7607 20.4717 18.3551 20.183C18.0438 19.9582 17.737 19.5896 17.438 19.2302C17.4374 19.2295 17.4368 19.2289 17.4363 19.2282C16.9891 18.6921 16.6019 18.229 16.2117 18.229C16.1621 18.2289 16.1128 18.2369 16.0657 18.2527C15.7707 18.3511 15.3927 18.7857 15.3927 19.9435C15.3927 20.3051 15.1161 20.5129 14.921 20.5129H13.8654C13.5059 20.5129 11.6329 20.3828 9.97345 18.5763C7.94219 16.3637 6.11375 11.9259 6.09839 11.8847C5.98315 11.5976 6.22131 11.4437 6.48098 11.4437H8.80878C9.11915 11.4437 9.22056 11.6388 9.29124 11.8117C9.37421 12.0131 9.67844 12.8141 10.1778 13.715C10.9875 15.1837 11.4838 15.7801 11.8818 15.7801C11.9564 15.7792 12.0297 15.7596 12.0954 15.723C12.6147 15.4248 12.5179 13.5136 12.4949 13.1171C12.4949 13.0425 12.4933 12.2622 12.2275 11.8878C12.037 11.6166 11.7128 11.5135 11.5161 11.4755C11.5957 11.3621 11.7006 11.2701 11.8219 11.2074C12.1783 11.0234 12.8206 10.9965 13.4582 10.9965H13.8132C14.5046 11.006 14.6828 11.052 14.9333 11.117C15.4403 11.2423 15.4511 11.5801 15.4065 12.7364C15.3927 13.0647 15.3789 13.4359 15.3789 13.8736C15.3789 13.9688 15.3743 14.0703 15.3743 14.1781C15.3742 14.1796 15.3742 14.181 15.3742 14.1824C15.3588 14.7698 15.3414 15.435 15.743 15.7087C15.7955 15.7427 15.8562 15.7608 15.9182 15.761C16.058 15.761 16.479 15.761 17.6191 13.742C17.9707 13.0921 18.2762 12.4168 18.5333 11.7213C18.5564 11.6801 18.624 11.5532 18.7039 11.504C18.7628 11.473 18.8282 11.4572 18.8944 11.458H21.6309C21.929 11.458 22.1333 11.504 22.1718 11.623C22.2394 11.8117 22.1595 12.3875 20.9103 14.1337L20.3525 14.8934C19.2201 16.4256 19.2201 16.5033 20.4232 17.6659Z" fill="#3278FF"/>
<path d="M20.4232 17.6659C20.4232 17.6659 21.7277 18.995 22.0488 19.612C22.0581 19.6247 22.0627 19.6374 22.0657 19.6437C22.1963 19.8705 22.2271 20.0466 22.1625 20.1782C22.055 20.3971 21.6862 20.505 21.5602 20.5145H19.2555C19.0957 20.5145 18.7607 20.4717 18.3551 20.183C18.0438 19.9582 17.737 19.5896 17.438 19.2302L17.4363 19.2282C16.9891 18.6921 16.6019 18.229 16.2117 18.229C16.1621 18.2289 16.1128 18.2369 16.0657 18.2527C15.7707 18.3511 15.3927 18.7857 15.3927 19.9435C15.3927 20.3051 15.1161 20.5129 14.921 20.5129H13.8654C13.5059 20.5129 11.6329 20.3828 9.97345 18.5763C7.94219 16.3637 6.11375 11.9259 6.09839 11.8847C5.98315 11.5976 6.22131 11.4437 6.48098 11.4437H8.80878C9.11915 11.4437 9.22056 11.6388 9.29124 11.8117C9.37421 12.0131 9.67844 12.8141 10.1778 13.715C10.9875 15.1837 11.4838 15.7801 11.8818 15.7801C11.9564 15.7792 12.0297 15.7596 12.0954 15.723C12.6147 15.4248 12.5179 13.5136 12.4949 13.1171C12.4949 13.0425 12.4933 12.2622 12.2275 11.8878C12.037 11.6166 11.7128 11.5135 11.5161 11.4755C11.5957 11.3621 11.7006 11.2701 11.8219 11.2074C12.1783 11.0234 12.8206 10.9965 13.4582 10.9965H13.8132C14.5046 11.006 14.6828 11.052 14.9333 11.117C15.4403 11.2423 15.4511 11.5801 15.4065 12.7364C15.3927 13.0647 15.3789 13.4359 15.3789 13.8736C15.3789 13.9688 15.3743 14.0703 15.3743 14.1781L15.3742 14.1824C15.3588 14.7698 15.3414 15.435 15.743 15.7087C15.7955 15.7427 15.8562 15.7608 15.9182 15.761C16.058 15.761 16.479 15.761 17.6191 13.742C17.9707 13.0921 18.2762 12.4168 18.5333 11.7213C18.5564 11.6801 18.624 11.5532 18.7039 11.504C18.7628 11.473 18.8282 11.4572 18.8944 11.458H21.6309C21.929 11.458 22.1333 11.504 22.1718 11.623C22.2394 11.8117 22.1595 12.3875 20.9103 14.1337L20.3525 14.8934C19.2201 16.4256 19.2201 16.5033 20.4232 17.6659Z" fill="white"/>
</svg>
