<svg width="31" height="31" viewBox="0 0 31 31" fill="none" xmlns="http://www.w3.org/2000/svg">
<g clip-path="url(#clip0_139_457)">
<path d="M8.2983 26.5685L8.78057 26.8146C10.7903 28.0448 13.041 28.6189 15.2919 28.6189C22.3657 28.6189 28.1534 22.7137 28.1534 15.4962C28.1534 12.0516 26.7868 8.68885 24.3754 6.22831C21.9638 3.76777 18.7483 2.37354 15.2919 2.37354C8.21798 2.37354 2.43016 8.27874 2.51059 15.5783C2.51059 18.0387 3.23406 20.4173 4.43979 22.4676L4.7613 22.9598L3.47525 27.7988L8.2983 26.5685Z" fill="#00E676"/>
<path d="M25.7419 4.91609C23.0088 2.04555 19.2307 0.487183 15.3722 0.487183C7.17302 0.487183 0.581413 7.29456 0.661733 15.5782C0.661733 18.2028 1.3852 20.7454 2.59104 23.0418L0.500977 30.8334L8.29831 28.783C10.4687 30.0133 12.8802 30.5874 15.2919 30.5874C23.4107 30.5874 30.0023 23.78 30.0023 15.4964C30.0023 11.4775 28.475 7.70467 25.742 4.91609H25.7419ZM15.3722 28.045C13.2018 28.045 11.0314 27.4709 9.18253 26.3227L8.70026 26.0766L4.03797 27.3068L5.2437 22.6319L4.92219 22.1398C1.3852 16.3166 3.07332 8.60684 8.86102 4.99804C14.6487 1.38935 22.1245 3.11174 25.6615 9.01695C29.1984 14.9221 27.5103 22.5497 21.7227 26.1585C19.8737 27.3888 17.623 28.0448 15.3722 28.0448V28.045ZM22.4461 18.9412L21.5618 18.5311C21.5618 18.5311 20.2758 17.9569 19.4719 17.5468C19.3915 17.5468 19.3111 17.4648 19.2307 17.4648C18.9895 17.4648 18.8287 17.5468 18.668 17.6289C18.668 17.6289 18.5877 17.7108 17.4623 19.0231C17.3818 19.1872 17.2211 19.2692 17.0603 19.2692H16.9799C16.8995 19.2692 16.7388 19.1872 16.6584 19.1052L16.2564 18.9412C15.3722 18.5311 14.5684 18.0389 13.9253 17.3828C13.7645 17.2188 13.5233 17.0548 13.3626 16.8907C12.7998 16.3166 12.2371 15.6604 11.8353 14.9223L11.7549 14.7582C11.6746 14.6762 11.6746 14.5942 11.5941 14.4302C11.5941 14.2662 11.5941 14.1022 11.6746 14.0201C11.6746 14.0201 11.9961 13.61 12.2371 13.364C12.398 13.1999 12.4783 12.9539 12.6391 12.7899C12.7998 12.5438 12.8803 12.2158 12.7998 11.9697C12.7195 11.5596 11.7549 9.34511 11.5138 8.85304C11.3529 8.60695 11.1923 8.525 10.9511 8.44293H10.0669C9.906 8.44293 9.74535 8.525 9.58448 8.525L9.50405 8.60695C9.34329 8.68902 9.18253 8.85304 9.02178 8.935C8.86102 9.09913 8.78058 9.26304 8.61983 9.42717C8.05712 10.1653 7.73561 11.0675 7.73561 11.9697C7.73561 12.6257 7.89636 13.2819 8.13756 13.8561L8.21799 14.1022C8.94146 15.6604 9.906 17.0548 11.1923 18.285L11.5138 18.613C11.7549 18.8591 11.9961 19.0231 12.1568 19.2691C13.8449 20.7455 15.7741 21.8117 17.9445 22.3858C18.1857 22.4678 18.5072 22.4678 18.7484 22.5499H19.5522C19.9542 22.5499 20.4364 22.3858 20.7581 22.2218C20.9991 22.0578 21.1599 22.0578 21.3207 21.8938L21.4815 21.7296C21.6423 21.5656 21.803 21.4837 21.9638 21.3197C22.1245 21.1556 22.2853 20.9916 22.3657 20.8275C22.5265 20.4994 22.6068 20.0893 22.6873 19.6793V19.1052C22.6873 19.1052 22.6068 19.0231 22.4461 18.9412Z" fill="white"/>
</g>
<defs>
<clipPath id="clip0_139_457">
<rect width="29.5009" height="30.4525" fill="white" transform="translate(0.500977 0.487183)"/>
</clipPath>
</defs>
</svg>
